<svg version="1.1" id="Layer_1" xmlns="http://www.w3.org/2000/svg" xmlns:xlink="http://www.w3.org/1999/xlink" x="0px" y="0px"
	 width="100%" viewBox="0 0 512 512" enable-background="new 0 0 512 512" xml:space="preserve">
<path fill="#000000" opacity="1.000000" stroke="none" 
	d="
M513.000000,171.533875 
	C505.562042,191.396805 490.614532,204.555145 475.209320,217.277954 
	C456.601227,232.645966 435.935516,244.973663 415.212921,257.166626 
	C411.845856,259.147797 410.572266,261.650208 410.375916,265.129150 
	C407.963074,307.882660 389.525116,342.911255 357.833801,370.872040 
	C335.624390,390.467102 309.526947,402.340027 279.872223,406.585754 
	C241.595108,412.065918 206.456894,404.273193 173.773499,384.009552 
	C165.113602,378.640411 157.014374,372.616302 150.163773,365.095673 
	C147.707291,362.398926 145.250473,361.652985 141.896912,362.417328 
	C128.993774,365.358124 116.037300,368.097382 102.928978,369.907379 
	C77.237030,373.455017 51.475174,376.103333 25.759298,370.276825 
	C15.238121,367.893005 5.952199,363.343689 1.187042,352.278442 
	C1.000000,346.645081 1.000000,341.290131 1.000000,335.467590 
	C6.558089,321.253723 16.241812,310.520874 27.047558,300.909637 
	C37.326366,291.767090 48.381794,283.510315 59.715340,275.651001 
	C72.001648,267.130951 84.517525,259.001129 97.754051,252.035599 
	C101.260178,250.190536 103.558250,247.786102 103.632408,243.633667 
	C103.948265,225.945541 108.680565,209.265427 115.577965,193.162323 
	C122.283531,177.507080 131.449753,163.505585 142.916275,150.744217 
	C163.193985,128.176682 187.977921,113.295235 217.000000,105.438148 
	C239.071960,99.462654 261.547455,98.923065 284.103180,102.693176 
	C290.635162,103.784966 292.889191,106.782181 292.317474,113.344727 
	C291.918243,117.927963 288.614014,120.300232 282.699432,120.367378 
	C276.363464,120.439301 270.184052,118.760834 263.924286,118.517174 
	C242.916656,117.699448 222.677658,121.427208 203.321579,129.768997 
	C187.260193,136.690903 172.826782,146.291336 160.678207,158.666870 
	C142.057693,177.635254 129.851730,200.335571 124.235489,226.551468 
	C117.957985,255.854095 121.889641,283.879517 133.569794,311.127075 
	C134.553207,313.421143 135.943741,313.652710 138.346130,313.002899 
	C154.347443,308.674744 170.218414,303.930878 186.058624,299.043915 
	C221.921616,287.979553 256.958710,274.651642 291.744812,260.666473 
	C310.231842,253.234100 328.571686,245.397461 346.504730,236.663376 
	C358.460297,230.840561 370.418243,225.019531 382.457306,219.373016 
	C386.391266,217.527939 387.125366,215.400818 385.720245,211.134232 
	C379.585785,192.506699 369.654846,176.155487 356.472229,161.843002 
	C347.217102,151.794601 336.494171,143.386658 324.511780,136.669464 
	C320.912384,134.651672 317.110016,132.738617 316.681396,127.785957 
	C315.997375,119.881256 322.229370,115.310677 329.751404,118.576218 
	C337.710022,122.031273 344.887054,126.858803 351.506958,132.446899 
	C356.442810,136.613434 361.957306,140.110458 366.205414,145.084030 
	C367.543182,146.650253 369.301300,146.868454 371.225403,146.373825 
	C385.826599,142.620209 400.665466,140.034210 415.567139,137.926498 
	C424.245850,136.698959 433.041595,136.101318 441.806183,135.735947 
	C450.097839,135.390305 458.343506,133.997055 466.681732,134.643982 
	C476.955414,135.441055 487.097290,136.761276 496.693329,140.872726 
	C504.037079,144.019226 509.692993,148.808838 512.834045,156.701691 
	C513.000000,161.689255 513.000000,166.378510 513.000000,171.533875 
M194.127884,348.871979 
	C185.686081,351.310669 177.244278,353.749359 168.351868,356.318207 
	C204.009521,389.405090 262.031372,401.382874 312.402588,378.347809 
	C363.841583,354.824493 389.284332,305.324341 391.060455,271.240723 
	C389.248047,270.897308 387.869507,272.060913 386.438019,272.744537 
	C374.762756,278.319916 363.216461,284.170990 351.472961,289.596313 
	C338.227417,295.715607 324.900848,301.676270 311.461121,307.354706 
	C287.481171,317.486481 263.079987,326.552124 238.484726,335.063202 
	C224.103088,340.039948 209.589539,344.658020 194.127884,348.871979 
M383.314575,165.588318 
	C388.432770,173.273758 388.452179,173.354843 397.788361,171.120392 
	C412.569275,167.582855 427.533508,166.070267 442.717499,166.666275 
	C455.734894,167.177231 463.177277,177.093536 457.743256,186.943802 
	C455.998505,190.106522 453.894379,193.104172 451.279999,195.752686 
	C437.336609,209.877914 420.567535,220.030334 403.253021,229.170212 
	C379.452820,241.733734 355.192993,253.403412 330.551758,264.275940 
	C298.969482,278.211090 266.918365,291.025452 234.322296,302.277832 
	C187.364838,318.487854 140.359390,334.880249 90.657860,340.988281 
	C81.390999,342.127075 72.043884,341.847565 63.039928,338.884949 
	C56.867680,336.854095 54.314682,333.020905 54.699135,326.403961 
	C55.223141,317.385101 61.366924,311.791595 67.745918,306.709534 
	C78.002670,298.538116 88.987587,291.389709 100.320290,284.764740 
	C105.871529,281.519592 106.452904,276.805847 102.318504,270.878632 
	C92.704323,275.732635 83.757713,281.779724 74.792633,287.704773 
	C62.482098,295.840851 50.690758,304.775818 39.656876,314.584656 
	C32.091011,321.310516 24.873035,328.524780 20.173223,337.715179 
	C16.947151,344.023712 18.524822,348.457336 24.931688,351.472809 
	C30.865833,354.265778 37.205452,355.413086 43.722721,355.645966 
	C62.865410,356.330048 81.851624,354.686676 100.716103,351.573914 
	C118.515205,348.636963 136.204315,345.120789 153.727661,340.812592 
	C167.095657,337.525970 180.317108,333.728699 193.537415,329.879120 
	C220.817459,321.935547 247.636932,312.679047 274.121765,302.461700 
	C295.333435,294.278687 316.282318,285.457062 337.035095,276.125946 
	C359.954010,265.820862 382.364288,254.546829 404.247681,242.272720 
	C425.801270,230.183578 446.860657,217.187683 466.030121,201.482956 
	C475.990143,193.323196 486.098663,185.170410 492.986603,173.921387 
	C498.297821,165.247360 496.088165,158.885071 486.226929,156.153351 
	C480.517059,154.571640 474.690430,153.399857 468.634308,153.267502 
	C448.495148,152.827408 428.499115,154.186707 408.630402,157.395020 
	C400.952332,158.634827 393.304688,160.102448 385.708618,161.765060 
	C384.666779,161.993103 380.568634,161.260406 383.314575,165.588318 
M106.413513,303.190491 
	C94.961342,309.292511 84.551620,316.882355 74.643250,325.344116 
	C88.656288,324.347565 102.257713,321.862122 115.987251,317.990997 
	C114.081543,312.649689 112.400444,308.018829 110.780502,303.366669 
	C109.836784,300.656494 108.431641,301.846619 106.413513,303.190491 
M426.102692,194.502762 
	C430.665924,191.796402 435.066040,188.880890 440.049622,184.210999 
	C425.503265,184.846237 412.714294,186.959244 400.015320,189.720200 
	C398.215057,190.111603 397.628357,191.604050 398.400055,193.196335 
	C400.598663,197.732758 401.231445,202.961609 404.500977,207.455688 
	C411.624329,203.160629 418.538940,198.991394 426.102692,194.502762 
z"/>
<path fill="#000000" opacity="1.000000" stroke="none" 
	d="
M449.280396,88.119347 
	C430.888184,79.748466 421.916107,65.495941 421.722260,45.924034 
	C421.513336,24.827374 437.733948,6.995663 458.601379,3.455488 
	C480.913910,-0.329855 502.682220,14.130219 508.476501,34.245968 
	C514.218567,54.180424 505.709564,75.751282 487.504303,85.721046 
	C475.180786,92.469772 462.624420,92.843239 449.280396,88.119347 
M490.906647,40.688351 
	C484.597046,22.743168 465.793610,15.573114 451.561035,25.685200 
	C441.157135,33.077042 437.115601,46.853359 442.299530,57.254677 
	C448.435303,69.565788 462.260071,75.951668 474.300415,71.530228 
	C486.067352,67.209183 493.758118,56.538326 490.906647,40.688351 
z"/>
<path fill="#000000" opacity="1.000000" stroke="none" 
	d="
M211.215820,152.857407 
	C212.404831,149.963379 214.417343,148.617523 216.855453,147.730423 
	C232.504181,142.036789 248.717560,139.391312 265.249664,140.795837 
	C290.149139,142.911240 312.386383,151.771240 331.631073,168.223022 
	C340.094025,175.457825 346.753601,183.986725 353.118469,192.854691 
	C357.772614,199.339127 356.022522,205.745758 349.600220,208.554703 
	C345.474060,210.359390 342.483307,208.673767 339.869934,205.820984 
	C334.496582,199.955368 330.253113,193.197510 324.654907,187.441605 
	C310.364563,172.748627 293.016968,163.972885 273.116699,160.480011 
	C257.064514,157.662567 241.066284,158.836792 225.550598,164.349945 
	C222.030273,165.600815 218.253357,166.282486 214.904968,164.495819 
	C210.407898,162.096252 209.955521,157.800018 211.215820,152.857407 
z"/>
<path fill="#000000" opacity="1.000000" stroke="none" 
	d="
M107.593231,67.590164 
	C115.316734,79.913460 116.965996,92.629517 109.768272,105.055367 
	C99.301910,123.124062 75.839775,127.143700 59.899540,115.028984 
	C46.282249,104.679741 43.243305,86.067505 50.307323,72.167458 
	C59.937584,53.217766 87.852112,48.302780 103.174858,63.035923 
	C104.611809,64.417587 105.969955,65.881210 107.593231,67.590164 
M92.640663,97.064911 
	C94.367363,95.315903 94.842400,92.960838 95.347984,90.746666 
	C96.802162,84.378220 94.303482,79.330299 89.347633,75.503563 
	C84.611229,71.846268 79.363770,71.359550 73.964554,74.065590 
	C68.696243,76.706024 65.519867,80.800186 65.352570,86.903366 
	C65.161285,93.881325 68.298004,98.859474 74.758987,101.763145 
	C80.728798,104.446083 86.487495,103.070305 92.640663,97.064911 
z"/>
<path fill="#000000" opacity="1.000000" stroke="none" 
	d="
M249.392334,488.913940 
	C244.135513,468.732544 255.967957,455.056152 268.110840,450.723328 
	C281.282196,446.023468 295.611969,450.196167 304.276550,461.159393 
	C311.824677,470.709991 312.241669,486.131317 305.252258,497.245880 
	C299.578522,506.268280 285.916901,512.865234 276.178223,511.285187 
	C262.420319,509.053070 252.084869,500.514191 249.392334,488.913940 
M279.386688,467.360626 
	C278.556122,467.378906 277.701447,467.275726 276.898865,467.434998 
	C271.393158,468.527710 267.270599,472.769836 266.437042,478.122528 
	C265.646179,483.201019 268.377258,488.545074 273.024506,491.012634 
	C278.476105,493.907227 282.951813,493.149750 287.674194,489.205902 
	C292.047913,485.553284 292.540833,480.748688 291.297913,476.064270 
	C289.908539,470.827759 285.458496,468.285797 279.386688,467.360626 
z"/>
</svg>